<svg xmlns="http://www.w3.org/2000/svg" width="48" height="48" viewBox="0 0 48 48">
  <path id="Path_8" data-name="Path 8" d="M24,4.267c6.4,0,7.2,0,9.6.267a12.368,12.368,0,0,1,4.533.8,9.365,9.365,0,0,1,4.533,4.533,12.368,12.368,0,0,1,.8,4.533c0,2.4.267,3.2.267,9.6s0,7.2-.267,9.6a12.369,12.369,0,0,1-.8,4.533,9.365,9.365,0,0,1-4.533,4.533,12.368,12.368,0,0,1-4.533.8c-2.4,0-3.2.267-9.6.267s-7.2,0-9.6-.267a12.369,12.369,0,0,1-4.533-.8,9.365,9.365,0,0,1-4.533-4.533,12.368,12.368,0,0,1-.8-4.533c0-2.4-.267-3.2-.267-9.6s0-7.2.267-9.6a12.368,12.368,0,0,1,.8-4.533A9.577,9.577,0,0,1,7.2,7.2,4.508,4.508,0,0,1,9.867,5.333a12.368,12.368,0,0,1,4.533-.8c2.4-.267,3.2-.267,9.6-.267M24,0c-6.4,0-7.467,0-9.867.267A16.463,16.463,0,0,0,8.267,1.333,10.439,10.439,0,0,0,4,4,10.439,10.439,0,0,0,1.333,8.267,12.15,12.15,0,0,0,.267,14.133C0,16.533,0,17.6,0,24s0,7.467.267,9.867a16.463,16.463,0,0,0,1.067,5.867A10.439,10.439,0,0,0,4,44a10.439,10.439,0,0,0,4.267,2.667,16.463,16.463,0,0,0,5.867,1.067C16.533,48,17.6,48,24,48s7.467,0,9.867-.267a16.463,16.463,0,0,0,5.867-1.067,11.188,11.188,0,0,0,6.933-6.933,16.463,16.463,0,0,0,1.067-5.867C47.733,31.2,48,30.4,48,24s0-7.467-.267-9.867a16.463,16.463,0,0,0-1.067-5.867A10.439,10.439,0,0,0,44,4a10.439,10.439,0,0,0-4.267-2.667A16.463,16.463,0,0,0,33.867.267C31.467,0,30.4,0,24,0m0,11.733A12.069,12.069,0,0,0,11.733,24,12.267,12.267,0,1,0,24,11.733M24,32a7.857,7.857,0,0,1-8-8,7.857,7.857,0,0,1,8-8,7.857,7.857,0,0,1,8,8,7.857,7.857,0,0,1-8,8M36.8,8.267A2.933,2.933,0,1,0,39.733,11.2,2.959,2.959,0,0,0,36.8,8.267" fill="hsla(341, 90%, 77%, 100%)" fill-rule="evenodd"/>
</svg>
